<svg width="24" height="24" viewBox="0 0 24 24" fill="none" xmlns="http://www.w3.org/2000/svg">
<g id="icons/copy">
<path id="Vector (Stroke)" fill-rule="evenodd" clip-rule="evenodd" d="M10.9996 9.9001C10.3921 9.9001 9.89961 10.3926 9.89961 11.0001V20.0001C9.89961 20.6076 10.3921 21.1001 10.9996 21.1001H19.9996C20.6071 21.1001 21.0996 20.6076 21.0996 20.0001V11.0001C21.0996 10.3926 20.6071 9.9001 19.9996 9.9001H10.9996ZM8.09961 11.0001C8.09961 9.39847 9.39798 8.1001 10.9996 8.1001H19.9996C21.6012 8.1001 22.8996 9.39847 22.8996 11.0001V20.0001C22.8996 21.6017 21.6012 22.9001 19.9996 22.9001H10.9996C9.39798 22.9001 8.09961 21.6017 8.09961 20.0001V11.0001Z" fill="#191B08"/>
<path id="Vector (Stroke)_2" fill-rule="evenodd" clip-rule="evenodd" d="M3.99961 2.9001C3.70787 2.9001 3.42808 3.01599 3.22179 3.22228C3.0155 3.42857 2.89961 3.70836 2.89961 4.0001V13.0001C2.89961 13.2918 3.0155 13.5716 3.22179 13.7779C3.42808 13.9842 3.70787 14.1001 3.99961 14.1001H4.99961C5.49667 14.1001 5.89961 14.503 5.89961 15.0001C5.89961 15.4972 5.49667 15.9001 4.99961 15.9001H3.99961C3.23048 15.9001 2.49285 15.5946 1.949 15.0507C1.40514 14.5069 1.09961 13.7692 1.09961 13.0001V4.0001C1.09961 3.23097 1.40514 2.49334 1.949 1.94949C2.49286 1.40563 3.23048 1.1001 3.99961 1.1001H12.9996C13.7687 1.1001 14.5064 1.40563 15.0502 1.94949C15.5941 2.49334 15.8996 3.23097 15.8996 4.0001V5.0001C15.8996 5.49715 15.4967 5.9001 14.9996 5.9001C14.5026 5.9001 14.0996 5.49715 14.0996 5.0001V4.0001C14.0996 3.70836 13.9837 3.42857 13.7774 3.22228C13.5711 3.01599 13.2913 2.9001 12.9996 2.9001H3.99961Z" fill="#191B08"/>
</g>
</svg>
