<svg width="24" height="24" viewBox="0 0 24 24" fill="none" xmlns="http://www.w3.org/2000/svg">
<g id="icons/download">
<path id="Vector (Stroke)" fill-rule="evenodd" clip-rule="evenodd" d="M2.99961 14.1001C3.49667 14.1001 3.89961 14.503 3.89961 15.0001V19.0001C3.89961 19.2918 4.0155 19.5716 4.22179 19.7779C4.42808 19.9842 4.70787 20.1001 4.99961 20.1001H18.9996C19.2913 20.1001 19.5711 19.9842 19.7774 19.7779C19.9837 19.5716 20.0996 19.2918 20.0996 19.0001V15.0001C20.0996 14.503 20.5026 14.1001 20.9996 14.1001C21.4967 14.1001 21.8996 14.503 21.8996 15.0001V19.0001C21.8996 19.7692 21.5941 20.5069 21.0502 21.0507C20.5064 21.5946 19.7687 21.9001 18.9996 21.9001H4.99961C4.23048 21.9001 3.49285 21.5946 2.949 21.0507C2.40514 20.5069 2.09961 19.7692 2.09961 19.0001V15.0001C2.09961 14.503 2.50255 14.1001 2.99961 14.1001Z" fill="black"/>
<path id="Union" fill-rule="evenodd" clip-rule="evenodd" d="M12.8997 3.0001C12.8997 2.50304 12.4968 2.1001 11.9997 2.1001C11.5027 2.1001 11.0997 2.50304 11.0997 3.0001V12.8273L7.63601 9.3636C7.28453 9.01213 6.71469 9.01213 6.36321 9.3636C6.01174 9.71508 6.01174 10.2849 6.36321 10.6364L11.3632 15.6364C11.4351 15.7083 11.5162 15.7655 11.6027 15.808C11.7224 15.867 11.8572 15.9001 11.9997 15.9001C12.2539 15.9001 12.4835 15.7947 12.6471 15.6253L17.636 10.6364C17.9875 10.2849 17.9875 9.71508 17.636 9.3636C17.2845 9.01213 16.7147 9.01213 16.3632 9.3636L12.8997 12.8271V3.0001Z" fill="black"/>
</g>
</svg>
